<svg width="469" height="113" viewBox="0 0 469 113" fill="none" xmlns="http://www.w3.org/2000/svg">
<path fill-rule="evenodd" clip-rule="evenodd" d="M0 111.883V14.1472H42.3169C51.0688 14.1472 58.6105 15.5899 64.9418 18.4755C71.2731 21.2679 76.1612 25.317 79.6061 30.6226C83.0509 35.9283 84.7735 42.258 84.7735 49.6113C84.7735 56.8717 83.0509 63.1547 79.6061 68.4604C76.1612 73.673 71.2731 77.6755 64.9418 80.4679L64.7501 80.5519L86.5891 111.883H62.1486L43.3805 84.6496C43.028 84.6543 42.6735 84.6566 42.3169 84.6566H22.6249V111.883H0ZM41.06 66.6453H22.6249V32.5774H41.06C48.043 32.5774 53.257 34.0666 56.7019 37.0453C60.1467 40.024 61.8693 44.2127 61.8693 49.6113C61.8693 54.917 60.1467 59.1057 56.7019 62.1774C53.257 65.1561 48.043 66.6453 41.06 66.6453ZM132.866 113C124.3 113 116.758 111.325 110.241 107.974C103.816 104.623 98.835 100.062 95.2971 94.2906C91.759 88.4264 89.9901 81.7711 89.9901 74.3245C89.9901 66.7849 91.7124 60.1296 95.1575 54.3585C98.6954 48.4943 103.49 43.9334 109.542 40.6755C115.594 37.3245 122.438 35.6491 130.072 35.6491C137.428 35.6491 144.038 37.2315 149.904 40.3962C155.863 43.4679 160.565 47.9358 164.01 53.8C167.455 59.5712 169.177 66.5056 169.177 74.6038C169.177 75.4415 169.131 76.4189 169.038 77.5358C168.944 78.5598 168.851 79.5372 168.758 80.4679H111.908C112.347 82.4676 113.048 84.3293 114.012 86.0528C115.874 89.1245 118.434 91.4981 121.693 93.1736C125.045 94.7561 128.955 95.5472 133.424 95.5472C137.428 95.5472 140.919 94.942 143.899 93.7321C146.971 92.5221 149.764 90.707 152.278 88.2868L163.87 100.853C160.425 104.762 156.096 107.787 150.882 109.928C145.668 111.976 139.662 113 132.866 113ZM113.732 61.4792C112.711 63.341 112.019 65.4354 111.657 67.7623H148.658C148.305 65.3958 147.603 63.2549 146.552 61.3396C144.969 58.4542 142.781 56.2202 139.988 54.6377C137.195 52.9623 133.936 52.1245 130.212 52.1245C126.488 52.1245 123.182 52.9623 120.296 54.6377C117.503 56.2202 115.315 58.5005 113.732 61.4792ZM210.357 113C203.281 113 196.903 111.418 191.224 108.253C185.544 104.995 181.028 100.481 177.677 94.7094C174.418 88.9383 172.789 82.1434 172.789 74.3245C172.789 66.4127 174.418 59.5712 177.677 53.8C181.028 48.0288 185.544 43.5609 191.224 40.3962C196.903 37.2315 203.281 35.6491 210.357 35.6491C216.688 35.6491 222.228 37.0453 226.977 39.8377C229.158 41.1204 231.113 42.7075 232.842 44.5991V8.28302H254.629V111.883H233.82V103.209C231.941 105.476 229.753 107.343 227.256 108.811C222.601 111.604 216.968 113 210.357 113ZM214.128 95.1283C217.666 95.1283 220.878 94.2906 223.764 92.6151C226.651 90.9396 228.932 88.566 230.608 85.4943C232.377 82.3296 233.261 78.6062 233.261 74.3245C233.261 69.9496 232.377 66.2264 230.608 63.1547C228.932 60.083 226.651 57.7094 223.764 56.034C220.878 54.3585 217.666 53.5207 214.128 53.5207C210.497 53.5207 207.238 54.3585 204.352 56.034C201.465 57.7094 199.138 60.083 197.369 63.1547C195.693 66.2264 194.855 69.9496 194.855 74.3245C194.855 78.6062 195.693 82.3296 197.369 85.4943C199.138 88.566 201.465 90.9396 204.352 92.6151C207.238 94.2906 210.497 95.1283 214.128 95.1283ZM269.207 111.883V36.766H290.995V111.883H269.207ZM305.629 111.883V36.766H327.416V111.883H305.629ZM438.275 35.6491C444.233 35.6491 449.492 36.859 454.056 39.2792C458.71 41.6062 462.341 45.2364 464.95 50.1698C467.648 55.01 469 61.2466 469 68.8792V111.883H447.213V72.2302C447.213 66.1798 445.956 61.7118 443.442 58.8264C440.928 55.941 437.389 54.4981 432.828 54.4981C429.661 54.4981 426.823 55.2429 424.309 56.7321C421.795 58.1283 419.84 60.2693 418.443 63.1547C417.047 66.0401 416.348 69.717 416.348 74.1849V111.883H394.561V72.2302C394.561 66.1798 393.304 61.7118 390.79 58.8264C388.369 55.941 384.877 54.4981 380.316 54.4981C377.149 54.4981 374.311 55.2429 371.797 56.7321C369.283 58.1283 367.328 60.2693 365.931 63.1547C364.534 66.0401 363.836 69.717 363.836 74.1849V111.883H342.049V36.766H362.859V45.4326C364.879 43.1065 367.254 41.195 369.981 39.6981C374.822 36.9986 380.316 35.6491 386.461 35.6491C393.349 35.6491 399.354 37.4175 404.477 40.9547C407.201 42.7547 409.443 45.0634 411.202 47.8806C413.365 45.1325 416.011 42.7774 419.141 40.8151C424.728 37.3712 431.105 35.6491 438.275 35.6491Z" fill="white"/>
<line x1="292.495" y1="17.6591" x2="309.254" y2="17.6591" stroke="#EF5122" stroke-width="4"/>
<path d="M280.518 1.23865C288.945 1.23884 295.776 8.07359 295.777 16.5052C295.777 24.9371 288.945 31.7726 280.518 31.7728C272.091 31.7728 265.258 24.9372 265.258 16.5052C265.258 8.07347 272.091 1.23865 280.518 1.23865Z" fill="#EF5122" stroke="#EF5122"/>
<path d="M316.449 5.02274C323.135 5.02274 328.556 10.4458 328.556 17.136C328.556 23.8264 323.135 29.2503 316.449 29.2503C309.762 29.2502 304.341 23.8264 304.341 17.136C304.342 10.4458 309.762 5.02279 316.449 5.02274Z" fill="#EF5122" stroke="#EF5122"/>
</svg>
